<svg style="position: absolute; width: 0; height: 0; overflow: hidden;" aria-hidden="true" version="1.1" xmlns="http://www.w3.org/2000/svg" xmlns:xlink="http://www.w3.org/1999/xlink">
    <defs>
        <symbol id="trash" viewBox="0 0 21 21" fill="currentColor" xmlns:xlink="http://www.w3.org/1999/xlink">
            <g stroke="currentColor" stroke-linecap="round" stroke-linejoin="round" fill="none" transform="translate(3 2)" fill-rule="evenodd">
                <path d="M2.5 2.5h10v12c0 1.1046-0.8954 2-2 2h-6c-1.1046 0-2-0.8954-2-2zM7.5 0.5c1.0544 0 1.9182 0.8159 1.9945 1.8507L9.5 2.5h-4c0-1.1046 0.8954-2 2-2z" />
                <path d="M0.5 2.5h14" />
                <path d="M5.5 5.5v8" />
                <path d="M9.5 5.5v8" />
            </g>
        </symbol>
        <symbol id="move" viewBox="0 0 21 21" fill="currentColor" xmlns:xlink="http://www.w3.org/1999/xlink">
            <g stroke="currentColor" stroke-linecap="round" stroke-linejoin="round" fill="none" transform="translate(1 1)" fill-rule="evenodd">
                <path d="M18.5 9.5h-18" />
                <path d="M9.5 0.5v18" />
                <path d="M15.5 12.5l3-3-3-3" />
                <path d="M3.5 12.5l-3-3 3-3" />
                <path d="M6.5 3.5l3-3 3 3" />
                <path d="M6.5 15.5l3 3 3-3" />
            </g>
        </symbol>
        <symbol id="plus-circle" viewBox="0 0 21 21" fill="currentColor" xmlns:xlink="http://www.w3.org/1999/xlink">
            <g stroke="currentColor" stroke-linecap="round" stroke-linejoin="round" fill="none" transform="translate(2 3)" fill-rule="evenodd">
                <path d="M8 16c4.438 0 8-3.5263 8-7.9643S12.438 0 8 0 0 3.5977 0 8.0357 3.562 16 8 16z" />
                <path d="M4 8h8" />
                <path d="M8 12.0563V4z" />
            </g>
        </symbol>
        <symbol id="info-circle" viewBox="0 0 21 21" fill="currentColor" xmlns:xlink="http://www.w3.org/1999/xlink">
            <g fill="none" transform="translate(2 2)" fill-rule="evenodd">
                <g stroke="currentColor" stroke-linecap="round" stroke-linejoin="round">
                    <circle cx="8.5" cy="8.5" r="8" />
                    <path d="M8.5 12.5v-4h-1" />
                    <path d="M7.5 12.5h2" />
                </g>
                <circle fill="currentColor" cx="8.5" cy="5.5" r="1" />
            </g>
        </symbol>
        <symbol id="code" viewBox="0 0 21 21" fill="currentColor" xmlns:xlink="http://www.w3.org/1999/xlink">
            <g stroke="currentColor" stroke-linecap="round" stroke-linejoin="round" fill="none" transform="translate(2 3)" fill-rule="evenodd">
                <line x1="10.5" x2="6.5" y1="0.5" y2="14.5" />
                <polyline transform="rotate(135 4.5 5.5)" points="7.328 2.672 7.328 8.328 1.672 8.328" />
                <polyline transform="matrix(0.707107, 0.707107, 0.707107, -0.707107, -3.056341, 7.378659)" points="15.328 6.672 15.328 12.328 9.672 12.328" />
            </g>
        </symbol>
        <symbol id="reset-forward" viewBox="0 0 21 21" fill="currentColor" xmlns:xlink="http://www.w3.org/1999/xlink">
            <g stroke="currentColor" stroke-linecap="round" stroke-linejoin="round" fill="none" transform="translate(2 2)" fill-rule="evenodd">
                <path d="M4.5 1.5c-2.4138 1.3773-4 4.0219-4 7 0 4.4183 3.5817 8 8 8s8-3.5817 8-8-3.5817-8-8-8" />
                <path d="M4.5 5.5v-4h-4" />
            </g>
        </symbol>
        <symbol id="retweet" viewBox="0 0 21 21" fill="currentColor" xmlns:xlink="http://www.w3.org/1999/xlink">
            <g stroke="currentColor" stroke-linecap="round" stroke-linejoin="round" fill="none" transform="translate(1 4)" fill-rule="evenodd">
                <path d="M12.5 9.5l3 3 3-3" />
                <path d="M8.5 0.5h3c2.2091 0 4 1.7909 4 4v8" />
                <path d="M6.5 3.5l-3-3-3 3" />
                <path d="M10.5 12.5h-3c-2.2091 0-4-1.7909-4-4v-8" />
            </g>
        </symbol>
        <symbol id="replicate-alt" viewBox="0 0 21 21" fill="currentColor" xmlns:xlink="http://www.w3.org/1999/xlink">
            <g stroke="currentColor" stroke-linecap="round" stroke-linejoin="round" fill="none" transform="translate(3 3)" fill-rule="evenodd">
                <path d="M14.5 9.5v-7c0-1.1046-0.8954-2-2-2h-7c-1.1046 0-2 0.8954-2 2v7c0 1.1046 0.8954 2 2 2h7c1.1046 0 2-0.8954 2-2z" />
                <path d="M11.5 11.5v1c0 1.1046-0.8954 2-2 2h-7c-1.1046 0-2-0.8954-2-2v-7c0-1.1046 0.8954-2 2-2h1" />
            </g>
        </symbol>
        <symbol id="menu-hamburger" viewBox="0 0 21 21" fill="currentColor" xmlns:xlink="http://www.w3.org/1999/xlink">
            <g stroke="currentColor" stroke-linecap="round" stroke-linejoin="round" fill="none" fill-rule="evenodd">
                <path d="M4.5 6.5h12" />
                <path d="M4.498 10.5h11.997" />
                <path d="M4.5 14.5h11.995" />
            </g>
        </symbol>
        <symbol id="menu-vertical" viewBox="0 0 21 21" fill="currentColor" xmlns:xlink="http://www.w3.org/1999/xlink">
            <g fill-rule="evenodd">
                <circle cx="10.5" cy="10.5" r="1" />
                <circle cx="10.5" cy="5.5" r="1" />
                <circle cx="10.5" cy="15.5" r="1" />
            </g>
        </symbol>
        <symbol id="menu-horizontal" viewBox="0 0 21 21" fill="currentColor" xmlns:xlink="http://www.w3.org/1999/xlink">
            <g fill-rule="evenodd">
                <circle cx="10.5" cy="10.5" r="1" />
                <circle cx="5.5" cy="10.5" r="1" />
                <circle cx="15.5" cy="10.5" r="1" />
            </g>
        </symbol>
        <symbol id="files-multi" viewBox="0 0 21 21" fill="currentColor" xmlns:xlink="http://www.w3.org/1999/xlink">
            <g stroke="currentColor" stroke-linecap="round" stroke-linejoin="round" fill="none" transform="translate(3 2)" fill-rule="evenodd">
                <path d="M14.5 12.5v-7l-5-5h-5c-1.1046 0-2 0.8954-2 2v10c0 1.1046 0.8954 2 2 2h8c1.1046 0 2-0.8954 2-2z" />
                <path d="M0.5 2.5v10c0 2.2091 1.7909 4 4 4h8M9.5 0.5v3c0 1.1046 0.8954 2 2 2h3" />
            </g>
        </symbol>
        <symbol id="folder-closed" viewBox="0 0 21 21" fill="currentColor" xmlns:xlink="http://www.w3.org/1999/xlink">
            <g stroke="currentColor" stroke-linecap="round" stroke-linejoin="round" fill="none" transform="translate(3 4)" fill-rule="evenodd">
                <path d="M0.5 1.5v9c0 1.1046 0.8954 2 2 2h10c1.1046 0 2-0.8954 2-2V4.4972c8e-4-1.0544-0.8151-1.9182-1.8499-1.9945L12.5 2.498 7.5 2.5l-2-2h-4c-0.5523 0-1 0.4477-1 1z" />
                <path d="M0.5 2.5h7" />
            </g>
        </symbol>
        <symbol id="create" viewBox="0 0 21 21" fill="currentColor" xmlns:xlink="http://www.w3.org/1999/xlink">
            <g stroke="currentColor" stroke-linecap="round" stroke-linejoin="round" fill="none" transform="translate(3 3)" fill-rule="evenodd">
                <path d="M7 1.5H2.5c-1.1046 0-2 0.8954-2 2v9.0004c0 1.1045 0.8954 2 2 2h10c1.1046 0 2-0.8955 2-2V8" />
                <path d="M14.5 0.4667c0.5549 0.5734 0.5474 1.4859-0.0168 2.0501L7.5 9.5l-3 1 1-3 6.9874-7.0456c0.5136-0.5179 1.3297-0.5536 1.8849-0.1046z" />
                <path d="M12.5 2.5l0.953 1" />
            </g>
        </symbol>
        <symbol id="circle" viewBox="0 0 21 21" xmlns:xlink="http://www.w3.org/1999/xlink">
            <circle stroke="currentColor" fill="none" cx="10.5" cy="10.5" r="8" />
        </symbol>
        <symbol id="check" viewBox="0 0 21 21" xmlns:xlink="http://www.w3.org/1999/xlink">
            <path stroke="currentColor" stroke-linecap="round" stroke-linejoin="round" fill="none" transform="translate(5 6)" d="M0.5 5.5l3 3 8.028-8" />
        </symbol>
        <symbol id="check-circle" viewBox="0 0 21 21" fill="currentColor" xmlns:xlink="http://www.w3.org/1999/xlink">
            <g stroke="currentColor" stroke-linecap="round" stroke-linejoin="round" fill="none" transform="translate(2 2)" fill-rule="evenodd">
                <circle cx="8.5" cy="8.5" r="8" />
                <path d="M5.5 9.5l2 2 5-5" />
            </g>
        </symbol>
        <symbol id="cast" viewBox="0 0 21 21" xmlns:xlink="http://www.w3.org/1999/xlink">
            <path stroke="currentColor" stroke-linecap="round" stroke-linejoin="round" fill="none" transform="translate(3 4)" d="M0.5 2.5c0-1.1046 0.8954-2 2-2h10c1.1046 0 2 0.8954 2 2v8c0 1.1046-0.8954 2-2 2h-2M8.5 12.5c0-4.4183-3.5817-8-8-8M5.5 12.5c0-2.7614-2.2386-5-5-5M2.5 12.5c0-1.1046-0.8954-2-2-2" />
        </symbol>
        <symbol id="bookmark" viewBox="0 0 21 21" xmlns:xlink="http://www.w3.org/1999/xlink">
            <path stroke="currentColor" stroke-linejoin="round" fill="none" transform="translate(6 4)" d="M1.5 0.5h6c0.5523 0 1 0.4477 1 1v12l-4-4-4 4v-12c0-0.5523 0.4477-1 1-1z" />
        </symbol>
        <symbol id="bluetooth" viewBox="0 0 21 21" xmlns:xlink="http://www.w3.org/1999/xlink">
            <path stroke="currentColor" stroke-linecap="round" stroke-linejoin="round" fill="none" transform="translate(7 3)" d="M0 3.75l7 7.5L3.5 15V0L7 3.75l-7 7.5" />
        </symbol>
        <symbol id="arrow-up-circle" viewBox="0 0 21 21" fill="currentColor" xmlns:xlink="http://www.w3.org/1999/xlink">
            <g stroke="currentColor" stroke-linecap="round" stroke-linejoin="round" fill="none" transform="translate(2 2)" fill-rule="evenodd">
                <circle cx="8.5" cy="8.5" r="8" />
                <path d="M11.5 7.5l-3-3-3 3" />
                <path d="M8.5 4.5v8" />
            </g>
        </symbol>
        <symbol id="arrow-down-circle" viewBox="0 0 21 21" fill="currentColor" xmlns:xlink="http://www.w3.org/1999/xlink">
            <g stroke="currentColor" stroke-linecap="round" stroke-linejoin="round" fill="none" transform="translate(3 2)" fill-rule="evenodd">
                <circle cx="8.5" cy="8.5" r="8" />
                <path d="M5.5 9.5l3 3 3-3" />
                <path d="M8.5 12.5v-8" />
            </g>
        </symbol>
        <symbol id="airplay" viewBox="0 0 21 21" fill="currentColor" xmlns:xlink="http://www.w3.org/1999/xlink">
            <g stroke="currentColor" stroke-linecap="round" stroke-linejoin="round" fill="none" transform="translate(3 4)" fill-rule="evenodd">
                <path d="M3.5 10.5l-1-0.0346c-1.1019-37e-4-2-0.9326-2-2.0345V2.4654c0-1.1045 0.8954-2 2-2l10-24e-4c1.1046 0 2 0.8954 2 2v6.0024c0 1.1046-0.8954 2-2 2-15e-4 0-0.3348 0.0124-1 0.0371" />
                <path transform="matrix(1, 0, 0, -1, 0, 22)" d="M7.5 12.5l-3-3h6z" />
            </g>
        </symbol>
    </defs>
</svg>